<svg width="70" height="70" viewBox="0 0 70 70" fill="none" xmlns="http://www.w3.org/2000/svg">
<path d="M35 38C36.6569 38 38 36.6569 38 35C38 33.3432 36.6569 32 35 32C33.3431 32 32 33.3432 32 35C32 36.6569 33.3431 38 35 38Z" fill="white"/>
<path d="M39.125 25.625H30.875C29.4826 25.625 28.1473 26.1781 27.1627 27.1627C26.1781 28.1473 25.625 29.4826 25.625 30.875V39.125C25.625 40.5174 26.1781 41.8528 27.1627 42.8373C28.1473 43.8219 29.4826 44.375 30.875 44.375H39.125C40.5174 44.375 41.8527 43.8219 42.8373 42.8373C43.8219 41.8528 44.375 40.5174 44.375 39.125V30.875C44.375 29.4826 43.8219 28.1473 42.8373 27.1627C41.8527 26.1781 40.5174 25.625 39.125 25.625V25.625ZM35 39.5C34.11 39.5 33.24 39.2361 32.4999 38.7416C31.7599 38.2472 31.1831 37.5444 30.8425 36.7221C30.5019 35.8998 30.4128 34.995 30.5865 34.1221C30.7601 33.2492 31.1887 32.4474 31.818 31.818C32.4474 31.1887 33.2492 30.7601 34.1221 30.5865C34.995 30.4129 35.8998 30.502 36.7221 30.8426C37.5443 31.1832 38.2471 31.7599 38.7416 32.5C39.2361 33.24 39.5 34.11 39.5 35C39.5 36.1935 39.0259 37.3381 38.182 38.182C37.3381 39.0259 36.1935 39.5 35 39.5ZM39.875 31.25C39.6525 31.25 39.435 31.184 39.25 31.0604C39.065 30.9368 38.9208 30.7611 38.8356 30.5555C38.7505 30.35 38.7282 30.1238 38.7716 29.9055C38.815 29.6873 38.9222 29.4869 39.0795 29.3295C39.2368 29.1722 39.4373 29.065 39.6555 29.0216C39.8738 28.9782 40.1 29.0005 40.3055 29.0857C40.5111 29.1708 40.6868 29.315 40.8104 29.5C40.934 29.685 41 29.9025 41 30.125C41 30.4234 40.8815 30.7095 40.6705 30.9205C40.4595 31.1315 40.1734 31.25 39.875 31.25Z" fill="white"/>
<circle cx="35" cy="35" r="34.2288" stroke="#5C6267" stroke-width="1.54234"/>
</svg>
