<svg width="70" height="70" viewBox="0 0 70 70" fill="none" xmlns="http://www.w3.org/2000/svg">
<path d="M42.875 25.625H27.125C26.7272 25.625 26.3456 25.783 26.0643 26.0643C25.783 26.3456 25.625 26.7272 25.625 27.125V42.875C25.625 43.2728 25.783 43.6544 26.0643 43.9357C26.3456 44.217 26.7272 44.375 27.125 44.375H42.875C43.2728 44.375 43.6544 44.217 43.9357 43.9357C44.217 43.6544 44.375 43.2728 44.375 42.875V27.125C44.375 26.7272 44.217 26.3456 43.9357 26.0643C43.6544 25.783 43.2728 25.625 42.875 25.625ZM32 39.5C32 39.6989 31.921 39.8897 31.7803 40.0303C31.6397 40.171 31.4489 40.25 31.25 40.25C31.0511 40.25 30.8603 40.171 30.7197 40.0303C30.579 39.8897 30.5 39.6989 30.5 39.5V33.5C30.5 33.3011 30.579 33.1103 30.7197 32.9697C30.8603 32.829 31.0511 32.75 31.25 32.75C31.4489 32.75 31.6397 32.829 31.7803 32.9697C31.921 33.1103 32 33.3011 32 33.5V39.5ZM31.25 31.625C31.0275 31.625 30.81 31.559 30.625 31.4354C30.44 31.3118 30.2958 31.1361 30.2106 30.9305C30.1255 30.725 30.1032 30.4988 30.1466 30.2805C30.19 30.0623 30.2972 29.8618 30.4545 29.7045C30.6118 29.5472 30.8123 29.44 31.0305 29.3966C31.2488 29.3532 31.475 29.3755 31.6805 29.4606C31.8861 29.5458 32.0618 29.69 32.1854 29.875C32.309 30.06 32.375 30.2775 32.375 30.5C32.375 30.7984 32.2565 31.0845 32.0455 31.2955C31.8345 31.5065 31.5484 31.625 31.25 31.625V31.625ZM40.25 39.5C40.25 39.6989 40.171 39.8897 40.0303 40.0303C39.8897 40.171 39.6989 40.25 39.5 40.25C39.3011 40.25 39.1103 40.171 38.9697 40.0303C38.829 39.8897 38.75 39.6989 38.75 39.5V36.125C38.75 35.6277 38.5525 35.1508 38.2008 34.7992C37.8492 34.4475 37.3723 34.25 36.875 34.25C36.3777 34.25 35.9008 34.4475 35.5492 34.7992C35.1975 35.1508 35 35.6277 35 36.125V39.5C35 39.6989 34.921 39.8897 34.7803 40.0303C34.6397 40.171 34.4489 40.25 34.25 40.25C34.0511 40.25 33.8603 40.171 33.7197 40.0303C33.579 39.8897 33.5 39.6989 33.5 39.5V33.5C33.4995 33.3154 33.567 33.1371 33.6898 32.9993C33.8125 32.8614 33.9817 32.7736 34.1651 32.7527C34.3485 32.7318 34.5331 32.7793 34.6837 32.886C34.8343 32.9928 34.9402 33.1513 34.9813 33.3312C35.4887 32.9872 36.0803 32.788 36.6925 32.7548C37.3047 32.7217 37.9144 32.8559 38.4561 33.1431C38.9977 33.4303 39.4509 33.8597 39.767 34.385C40.083 34.9104 40.25 35.5119 40.25 36.125V39.5Z" fill="white"/>
<circle cx="35" cy="35" r="34.2288" stroke="#5C6267" stroke-width="1.54234"/>
</svg>
