<svg width="70" height="70" viewBox="0 0 70 70" fill="none" xmlns="http://www.w3.org/2000/svg">
<path d="M46.0346 30.2845L43.2034 33.1063C42.6409 39.6595 37.1096 44.7501 30.5002 44.7501C29.1409 44.7501 28.0159 44.5345 27.1627 44.1126C26.4784 43.7657 26.1971 43.4001 26.1221 43.2876C26.0601 43.1933 26.0201 43.0863 26.0051 42.9744C25.9902 42.8626 26.0007 42.7488 26.0358 42.6416C26.071 42.5344 26.1299 42.4364 26.2081 42.3551C26.2864 42.2738 26.3819 42.2112 26.4877 42.172C26.5065 42.1626 28.719 41.3188 30.1534 39.697C29.2638 39.0636 28.482 38.2912 27.8377 37.4095C26.5534 35.6657 25.194 32.6376 26.0096 28.1188C26.0353 27.9845 26.0967 27.8596 26.1875 27.7573C26.2782 27.655 26.3949 27.5791 26.5252 27.5376C26.656 27.4948 26.796 27.4888 26.9299 27.5202C27.0638 27.5516 27.1866 27.6192 27.2846 27.7157C27.3127 27.7532 30.4346 30.8282 34.2502 31.822V31.2501C34.2539 30.6554 34.3747 30.0673 34.6057 29.5194C34.8366 28.9714 35.1733 28.4743 35.5964 28.0564C36.0195 27.6386 36.5207 27.3081 37.0715 27.084C37.6223 26.8598 38.2119 26.7464 38.8065 26.7501C39.587 26.7612 40.3512 26.9743 41.0248 27.3686C41.6985 27.7629 42.2584 28.325 42.6503 29.0001H45.5003C45.6483 28.9996 45.7932 29.043 45.9167 29.1247C46.0401 29.2065 46.1366 29.323 46.194 29.4595C46.248 29.598 46.2617 29.749 46.2335 29.895C46.2053 30.041 46.1364 30.176 46.0346 30.2845V30.2845Z" fill="white"/>
<circle cx="35" cy="35" r="34.2288" stroke="#5C6267" stroke-width="1.54234"/>
</svg>
